<?xml version="1.0" encoding="utf-8"?>
<!-- Generator: Adobe Illustrator 22.0.1, SVG Export Plug-In . SVG Version: 6.00 Build 0)  -->
<svg version="1.1" xmlns="http://www.w3.org/2000/svg" xmlns:xlink="http://www.w3.org/1999/xlink" x="0px" y="0px"
	 viewBox="0 0 612 792" style="enable-background:new 0 0 612 792;" xml:space="preserve">
<style type="text/css">
	.st0{opacity:0.89;fill:#1A1A1A;}
	.st1{fill:#FFFFFF;}
	.st2{fill:#4D4D4D;}
	.st3{fill:#565760;}
	.st4{fill:#FFFF00;stroke:#000000;stroke-miterlimit:10;}
	.st5{fill:#9DA9AC;stroke:#000000;stroke-miterlimit:10;}
	.st6{fill:#3C7088;}
	.st7{fill:none;stroke:#FFFF00;stroke-width:3;stroke-miterlimit:10;}
	.st8{fill:none;stroke:#000000;stroke-miterlimit:10;}
</style>
<g id="Layer_1">
</g>
<g id="Suit">
	<g id="Lightbulb">
	</g>
	<g>
		<rect class="st0" width="612" height="792"/>
		<path d="M70.4,85.2c0,0-1.4,5.5-7.8,7.4l-20.5,7.6l-15.9,6.1c0,0-8.5,2.9-11.4,17.2l-2,10.4l-5.2,32.3c0,0-4.9,18.6,13.4,20.2
			c0,0,71.1,7.2,118.9,2.2l26.4-2.2c0,0,14.6-0.7,13.4-15.6l-6.1-41.1c0,0-1-18.9-14.4-23.7l-25.2-9.8c0,0-14.1-3.2-17.6-11
			l-0.6,4.5l-5,14.1l-17.4,46.9L72.3,93.3C72.3,93.3,70.1,87.1,70.4,85.2z"/>
		<path class="st1" d="M72.7,79.6l-2.3,5.6c0,0,0,5.2,1.9,8.1l21.2,57.4l22.4-61c0,0,0.7-1.3,0.6-4.5c0,0-1.6-3.9-2.6-5.6
			c0,0,1.3,3.8-7.6,7.8l-10,6.6l-5.2-0.1c0,0-15.3-8.2-15.4-10C75.6,83.9,73.9,82.2,72.7,79.6z"/>
		<path class="st2" d="M88.2,98.8c0,0,0.3,7,2.1,7.5l-7,16.7l10.2,27.8l10.1-27.4l-6.4-17.4c0,0,2.5-2.3,1.9-7.1
			c0,0-3.9-3.2-4.8-3.4h-1.5C92.8,95.4,89.5,97,88.2,98.8z"/>
		<path class="st3" d="M72.7,79.6V69.3c0,0-3.4-5.7-3-10.3c0,0-2.5,1.4-2.8-1.8L64.5,45c0,0-0.9-4,1.8-4.3l-1-7.8
			c0,0-6.3-30.1,25.6-32.9h6.6c0,0,32.4,1.1,23.2,40.5c0,0,1.6,0.1,1.7,2l-0.4,6.1l-1.5,8.2c0,0-1.2,3.7-3.2,2.2c0,0-0.4,7.9-3,10.7
			l-0.5,10c0,0,0.9,4-7.6,7.8l-10,6.6l-5.2-0.1c0,0-12.8-7-15.4-10C75.6,83.9,73.2,80.8,72.7,79.6z"/>
		<path d="M70.9,204.2c0,0-1.4,5.5-7.8,7.4l-20.5,7.6l-15.9,6.1c0,0-8.5,2.9-11.4,17.2l-2,10.4l-5.2,32.3c0,0-4.9,18.6,13.4,20.2
			c0,0,71.1,7.2,118.9,2.2l26.4-2.2c0,0,14.6-0.7,13.4-15.6l-6.1-41.1c0,0-1-18.9-14.4-23.7l-25.2-9.8c0,0-14.1-3.2-17.6-11
			l-0.6,4.5l-5,14.1l-17.4,46.9l-21.2-57.4C72.8,212.2,70.6,206,70.9,204.2z"/>
		<path class="st1" d="M73.2,198.5l-2.3,5.6c0,0,0,5.2,1.9,8.1l21.2,57.4l22.4-61c0,0,0.7-1.3,0.6-4.5c0,0-1.6-3.9-2.6-5.6
			c0,0,1.3,3.8-7.6,7.8l-10,6.6l-5.2-0.1c0,0-15.3-8.2-15.4-10C76.1,202.9,74.4,201.1,73.2,198.5z"/>
		<path class="st2" d="M88.7,217.7c0,0,0.3,7,2.1,7.5l-7,16.7l10.2,27.8l10.1-27.4l-6.4-17.4c0,0,2.5-2.3,1.9-7.1
			c0,0-3.9-3.2-4.8-3.4h-1.5C93.2,214.4,90,215.9,88.7,217.7z"/>
		<path class="st3" d="M73.2,198.5v-10.4c0,0-3.4-5.7-3-10.3c0,0-2.5,1.4-2.8-1.8L65,163.9c0,0-0.9-4,1.8-4.3l-1-7.8
			c0,0-6.3-30.1,25.6-32.9h6.6c0,0,32.4,1.1,23.2,40.5c0,0,1.6,0.1,1.7,2l-0.4,6.1l-1.5,8.2c0,0-1.2,3.7-3.2,2.2c0,0-0.4,7.9-3,10.7
			l-0.5,10c0,0,0.9,4-7.6,7.8l-10,6.6l-5.2-0.1c0,0-12.8-7-15.4-10C76.1,202.9,73.6,199.7,73.2,198.5z"/>
		<path d="M70.7,327.9c0,0-1.4,5.5-7.8,7.4l-20.5,7.6l-15.9,6.1c0,0-8.5,2.9-11.4,17.2l-2,10.4L8,408.8c0,0-4.9,18.6,13.4,20.2
			c0,0,71.1,7.2,118.9,2.2l26.4-2.2c0,0,14.6-0.7,13.4-15.6l-6.1-41.1c0,0-1-18.9-14.4-23.7l-25.2-9.8c0,0-14.1-3.2-17.6-11
			l-0.6,4.5l-5,14.1l-17.4,46.9l-21.2-57.4C72.6,335.9,70.4,329.7,70.7,327.9z"/>
		<path class="st1" d="M73,322.2l-2.3,5.6c0,0,0,5.2,1.9,8.1l21.2,57.4l22.4-61c0,0,0.7-1.3,0.6-4.5c0,0-1.6-3.9-2.6-5.6
			c0,0,1.3,3.8-7.6,7.8l-10,6.6l-5.2-0.1c0,0-15.3-8.2-15.4-10C75.9,326.6,74.2,324.8,73,322.2z"/>
		<path class="st2" d="M88.5,341.4c0,0,0.3,7,2.1,7.5l-7,16.7l10.2,27.8l10.1-27.4l-6.4-17.4c0,0,2.5-2.3,1.9-7.1
			c0,0-3.9-3.2-4.8-3.4h-1.5C93.1,338.1,89.8,339.6,88.5,341.4z"/>
		<path class="st3" d="M73,322.2v-10.4c0,0-3.4-5.7-3-10.3c0,0-2.5,1.4-2.8-1.8l-2.4-12.1c0,0-0.9-4,1.8-4.3l-1-7.8
			c0,0-6.3-30.1,25.6-32.9h6.6c0,0,32.4,1.1,23.2,40.5c0,0,1.6,0.1,1.7,2l-0.4,6.1l-1.5,8.2c0,0-1.2,3.7-3.2,2.2c0,0-0.4,7.9-3,10.7
			l-0.5,10c0,0,0.9,4-7.6,7.8l-10,6.6l-5.2-0.1c0,0-12.8-7-15.4-10C75.9,326.6,73.5,323.4,73,322.2z"/>
		<path d="M71.8,452.9c0,0-1.4,5.5-7.8,7.4l-20.5,7.6l-15.9,6.1c0,0-8.5,2.9-11.4,17.2l-2,10.4L9,533.8c0,0-4.9,18.6,13.4,20.2
			c0,0,71.1,7.2,118.9,2.2l26.4-2.2c0,0,14.6-0.7,13.4-15.6l-6.1-41.1c0,0-1-18.9-14.4-23.7l-25.2-9.8c0,0-14.1-3.2-17.6-11
			l-0.6,4.5l-5,14.1l-17.4,46.9L73.7,461C73.7,461,71.5,454.7,71.8,452.9z"/>
		<path class="st1" d="M74.1,447.2l-2.3,5.6c0,0,0,5.2,1.9,8.1l21.2,57.4l22.4-61c0,0,0.7-1.3,0.6-4.5c0,0-1.6-3.9-2.6-5.6
			c0,0,1.3,3.8-7.6,7.8l-10,6.6l-5.2-0.1c0,0-15.3-8.2-15.4-10C77,451.6,75.3,449.8,74.1,447.2z"/>
		<path class="st2" d="M89.6,466.4c0,0,0.3,7,2.1,7.5l-7,16.7l10.2,27.8l10.1-27.4l-6.4-17.4c0,0,2.5-2.3,1.9-7.1
			c0,0-3.9-3.2-4.8-3.4h-1.5C94.1,463.1,90.9,464.6,89.6,466.4z"/>
		<path class="st3" d="M74.1,447.2v-10.4c0,0-3.4-5.7-3-10.3c0,0-2.5,1.4-2.8-1.8l-2.4-12.1c0,0-0.9-4,1.8-4.3l-1-7.8
			c0,0-6.3-30.1,25.6-32.9H99c0,0,32.4,1.1,23.2,40.5c0,0,1.6,0.1,1.7,2l-0.4,6.1l-1.5,8.2c0,0-1.2,3.7-3.2,2.2c0,0-0.4,7.9-3,10.7
			l-0.5,10c0,0,0.9,4-7.6,7.8l-10,6.6l-5.2-0.1c0,0-12.8-7-15.4-10C77,451.6,74.5,448.4,74.1,447.2z"/>
		<path d="M71.8,574.9c0,0-1.4,5.5-7.8,7.4l-20.5,7.6l-15.9,6.1c0,0-8.5,2.9-11.4,17.2l-2,10.4L9,655.8c0,0-4.9,18.6,13.4,20.2
			c0,0,71.1,7.2,118.9,2.2l26.4-2.2c0,0,14.6-0.7,13.4-15.6l-6.1-41.1c0,0-1-18.9-14.4-23.7l-25.2-9.8c0,0-14.1-3.2-17.6-11
			l-0.6,4.5l-5,14.1l-17.4,46.9l-21.2-57.4C73.7,582.9,71.5,576.7,71.8,574.9z"/>
		<path class="st1" d="M74.1,569.2l-2.3,5.6c0,0,0,5.2,1.9,8.1l21.2,57.4l22.4-61c0,0,0.7-1.3,0.6-4.5c0,0-1.6-3.9-2.6-5.6
			c0,0,1.3,3.8-7.6,7.8l-10,6.6l-5.2-0.1c0,0-15.3-8.2-15.4-10C77,573.6,75.3,571.8,74.1,569.2z"/>
		<path class="st2" d="M89.6,588.4c0,0,0.3,7,2.1,7.5l-7,16.7l10.2,27.8l10.1-27.4l-6.4-17.4c0,0,2.5-2.3,1.9-7.1
			c0,0-3.9-3.2-4.8-3.4h-1.5C94.1,585.1,90.9,586.6,89.6,588.4z"/>
		<path class="st3" d="M74.1,569.2v-10.4c0,0-3.4-5.7-3-10.3c0,0-2.5,1.4-2.8-1.8l-2.4-12.1c0,0-0.9-4,1.8-4.3l-1-7.8
			c0,0-6.3-30.1,25.6-32.9H99c0,0,32.4,1.1,23.2,40.5c0,0,1.6,0.1,1.7,2l-0.4,6.1l-1.5,8.2c0,0-1.2,3.7-3.2,2.2c0,0-0.4,7.9-3,10.7
			l-0.5,10c0,0,0.9,4-7.6,7.8l-10,6.6l-5.2-0.1c0,0-12.8-7-15.4-10C77,573.6,74.5,570.4,74.1,569.2z"/>
		<path d="M71.8,682.1c0,0-1.4,5.5-7.8,7.4l-20.5,7.6l-15.9,6.1c0,0-8.5,2.9-11.4,17.2l-2,10.4L9,763.1c0,0-4.9,18.6,13.4,20.2
			c0,0,71.1,7.2,118.9,2.2l26.4-2.2c0,0,14.6-0.7,13.4-15.6l-6.1-41.1c0,0-1-18.9-14.4-23.7l-25.2-9.8c0,0-14.1-3.2-17.6-11
			l-0.6,4.5l-5,14.1l-17.4,46.9l-21.2-57.4C73.7,690.2,71.5,684,71.8,682.1z"/>
		<path class="st1" d="M74.1,676.5l-2.3,5.6c0,0,0,5.2,1.9,8.1l21.2,57.4l22.4-61c0,0,0.7-1.3,0.6-4.5c0,0-1.6-3.9-2.6-5.6
			c0,0,1.3,3.8-7.6,7.8l-10,6.6l-5.2-0.1c0,0-15.3-8.2-15.4-10C77,680.8,75.3,679.1,74.1,676.5z"/>
		<path class="st2" d="M89.6,695.7c0,0,0.3,7,2.1,7.5l-7,16.7l10.2,27.8l10.1-27.4l-6.4-17.4c0,0,2.5-2.3,1.9-7.1
			c0,0-3.9-3.2-4.8-3.4h-1.5C94.1,692.3,90.9,693.9,89.6,695.7z"/>
		<path class="st3" d="M74.1,676.5v-10.4c0,0-3.4-5.7-3-10.3c0,0-2.5,1.4-2.8-1.8l-2.4-12.1c0,0-0.9-4,1.8-4.3l-1-7.8
			c0,0-6.3-30.1,25.6-32.9H99c0,0,32.4,1.1,23.2,40.5c0,0,1.6,0.1,1.7,2l-0.4,6.1l-1.5,8.2c0,0-1.2,3.7-3.2,2.2c0,0-0.4,7.9-3,10.7
			l-0.5,10c0,0,0.9,4-7.6,7.8l-10,6.6l-5.2-0.1c0,0-12.8-7-15.4-10C77,680.8,74.5,677.7,74.1,676.5z"/>
		<path d="M282.3,85c0,0-1.4,5.5-7.8,7.4L254,100l-15.9,6.1c0,0-8.5,2.9-11.4,17.2l-2,10.4l-5.2,32.3c0,0-4.9,18.6,13.4,20.2
			c0,0,71.1,7.2,118.9,2.2l26.4-2.2c0,0,14.6-0.7,13.4-15.6l-6.1-41.1c0,0-1-18.9-14.4-23.7L345.9,96c0,0-14.1-3.2-17.6-11l-0.6,4.5
			l-5,14.1l-17.4,46.9l-21.2-57.4C284.2,93.1,282,86.9,282.3,85z"/>
		<path class="st1" d="M284.6,79.4l-2.3,5.6c0,0,0,5.2,1.9,8.1l21.2,57.4l22.4-61c0,0,0.7-1.3,0.6-4.5c0,0-1.6-3.9-2.6-5.6
			c0,0,1.3,3.8-7.6,7.8l-10,6.6l-5.2-0.1c0,0-15.3-8.2-15.4-10C287.5,83.7,285.7,82,284.6,79.4z"/>
		<path class="st2" d="M300.1,98.6c0,0,0.3,7,2.1,7.5l-7,16.7l10.2,27.8l10.1-27.4l-6.4-17.4c0,0,2.5-2.3,1.9-7.1
			c0,0-3.9-3.2-4.8-3.4h-1.5C304.6,95.2,301.4,96.7,300.1,98.6z"/>
		<path class="st3" d="M284.6,79.4V69c0,0-3.4-5.7-3-10.3c0,0-2.5,1.4-2.8-1.8l-2.4-12.1c0,0-0.9-4,1.8-4.3l-1-7.8
			c0,0-6.3-30.1,25.6-32.9h6.6c0,0,32.4,1.1,23.2,40.5c0,0,1.6,0.1,1.7,2l-0.4,6.1l-1.5,8.2c0,0-1.2,3.7-3.2,2.2c0,0-0.4,7.9-3,10.7
			l-0.5,10c0,0,0.9,4-7.6,7.8l-10,6.6l-5.2-0.1c0,0-12.8-7-15.4-10C287.5,83.7,285,80.5,284.6,79.4z"/>
		<path d="M282.7,203.9c0,0-1.4,5.5-7.8,7.4l-20.5,7.6l-15.9,6.1c0,0-8.5,2.9-11.4,17.2l-2,10.4l-5.2,32.3c0,0-4.9,18.6,13.4,20.2
			c0,0,71.1,7.2,118.9,2.2l26.4-2.2c0,0,14.6-0.7,13.4-15.6l-6.1-41.1c0,0-1-18.9-14.4-23.7l-25.2-9.8c0,0-14.1-3.2-17.6-11
			l-0.6,4.5l-5,14.1l-17.4,46.9L284.6,212C284.6,212,282.5,205.8,282.7,203.9z"/>
		<path class="st1" d="M285.1,198.3l-2.3,5.6c0,0,0,5.2,1.9,8.1l21.2,57.4l22.4-61c0,0,0.7-1.3,0.6-4.5c0,0-1.6-3.9-2.6-5.6
			c0,0,1.3,3.8-7.6,7.8l-10,6.6l-5.2-0.1c0,0-15.3-8.2-15.4-10C287.9,202.6,286.2,200.9,285.1,198.3z"/>
		<path class="st2" d="M300.5,217.5c0,0,0.3,7,2.1,7.5l-7,16.7l10.2,27.8l10.1-27.4l-6.4-17.4c0,0,2.5-2.3,1.9-7.1
			c0,0-3.9-3.2-4.8-3.4h-1.5C305.1,214.1,301.8,215.6,300.5,217.5z"/>
		<path class="st3" d="M285.1,198.3v-10.4c0,0-3.4-5.7-3-10.3c0,0-2.5,1.4-2.8-1.8l-2.4-12.1c0,0-0.9-4,1.8-4.3l-1-7.8
			c0,0-6.3-30.1,25.6-32.9h6.6c0,0,32.4,1.1,23.2,40.5c0,0,1.6,0.1,1.7,2l-0.4,6.1l-1.5,8.2c0,0-1.2,3.7-3.2,2.2c0,0-0.4,7.9-3,10.7
			l-0.5,10c0,0,0.9,4-7.6,7.8l-10,6.6l-5.2-0.1c0,0-12.8-7-15.4-10C287.9,202.6,285.5,199.4,285.1,198.3z"/>
		<path d="M282.6,327.6c0,0-1.4,5.5-7.8,7.4l-20.5,7.6l-15.9,6.1c0,0-8.5,2.9-11.4,17.2l-2,10.4l-5.2,32.3c0,0-4.9,18.6,13.4,20.2
			c0,0,71.1,7.2,118.9,2.2l26.4-2.2c0,0,14.6-0.7,13.4-15.6l-6.1-41.1c0,0-1-18.9-14.4-23.7l-25.2-9.8c0,0-14.1-3.2-17.6-11
			l-0.6,4.5l-5,14.1l-17.4,46.9l-21.2-57.4C284.5,335.7,282.3,329.5,282.6,327.6z"/>
		<path class="st1" d="M284.9,322l-2.3,5.6c0,0,0,5.2,1.9,8.1l21.2,57.4l22.4-61c0,0,0.7-1.3,0.6-4.5c0,0-1.6-3.9-2.6-5.6
			c0,0,1.3,3.8-7.6,7.8l-10,6.6l-5.2-0.1c0,0-15.3-8.2-15.4-10C287.8,326.3,286,324.6,284.9,322z"/>
		<path class="st2" d="M300.4,341.2c0,0,0.3,7,2.1,7.5l-7,16.7l10.2,27.8l10.1-27.4l-6.4-17.4c0,0,2.5-2.3,1.9-7.1
			c0,0-3.9-3.2-4.8-3.4h-1.5C304.9,337.8,301.7,339.3,300.4,341.2z"/>
		<path class="st3" d="M284.9,322v-10.4c0,0-3.4-5.7-3-10.3c0,0-2.5,1.4-2.8-1.8l-2.4-12.1c0,0-0.9-4,1.8-4.3l-1-7.8
			c0,0-6.3-30.1,25.6-32.9h6.6c0,0,32.4,1.1,23.2,40.5c0,0,1.6,0.1,1.7,2l-0.4,6.1l-1.5,8.2c0,0-1.2,3.7-3.2,2.2c0,0-0.4,7.9-3,10.7
			l-0.5,10c0,0,0.9,4-7.6,7.8l-10,6.6l-5.2-0.1c0,0-12.8-7-15.4-10C287.8,326.3,285.3,323.2,284.9,322z"/>
		<path d="M486.8,84.7c0,0-1.4,5.5-7.8,7.4l-20.5,7.6l-15.9,6.1c0,0-8.5,2.9-11.4,17.2l-2,10.4l-5.2,32.3c0,0-4.9,18.6,13.4,20.2
			c0,0,71.1,7.2,118.9,2.2l26.4-2.2c0,0,14.6-0.7,13.4-15.6l-6.1-41.1c0,0-1-18.9-14.4-23.7l-25.2-9.8c0,0-14.1-3.2-17.6-11
			l-0.6,4.5l-5,14.1l-17.4,46.9l-21.2-57.4C488.7,92.8,486.6,86.6,486.8,84.7z"/>
		<path class="st1" d="M489.1,79.1l-2.3,5.6c0,0,0,5.2,1.9,8.1l21.2,57.4l22.4-61c0,0,0.7-1.3,0.6-4.5c0,0-1.6-3.9-2.6-5.6
			c0,0,1.3,3.8-7.6,7.8l-10,6.6l-5.2-0.1c0,0-15.3-8.2-15.4-10C492,83.4,490.3,81.7,489.1,79.1z"/>
		<path class="st2" d="M504.6,98.3c0,0,0.3,7,2.1,7.5l-7,16.7l10.2,27.8l10.1-27.4l-6.4-17.4c0,0,2.5-2.3,1.9-7.1
			c0,0-3.9-3.2-4.8-3.4h-1.5C509.2,95,505.9,96.5,504.6,98.3z"/>
		<path class="st3" d="M489.1,79.1V68.8c0,0-3.4-5.7-3-10.3c0,0-2.5,1.4-2.8-1.8l-2.4-12.1c0,0-0.9-4,1.8-4.3l-1-7.8
			c0,0-6.3-30.1,25.6-32.9h6.6c0,0,32.4,1.1,23.2,40.5c0,0,1.6,0.1,1.7,2l-0.4,6.1l-1.5,8.2c0,0-1.2,3.7-3.2,2.2c0,0-0.4,7.9-3,10.7
			l-0.5,10c0,0,0.9,4-7.6,7.8l-10,6.6l-5.2-0.1c0,0-12.8-7-15.4-10C492,83.4,489.6,80.3,489.1,79.1z"/>
		<path d="M487.3,203.7c0,0-1.4,5.5-7.8,7.4l-20.5,7.6l-15.9,6.1c0,0-8.5,2.9-11.4,17.2l-2,10.4l-5.2,32.3c0,0-4.9,18.6,13.4,20.2
			c0,0,71.1,7.2,118.9,2.2l26.4-2.2c0,0,14.6-0.7,13.4-15.6l-6.1-41.1c0,0-1-18.9-14.4-23.7l-25.2-9.8c0,0-14.1-3.2-17.6-11
			l-0.6,4.5l-5,14.1l-17.4,46.9l-21.2-57.4C489.2,211.7,487,205.5,487.3,203.7z"/>
		<path class="st1" d="M489.6,198l-2.3,5.6c0,0,0,5.2,1.9,8.1l21.2,57.4l22.4-61c0,0,0.7-1.3,0.6-4.5c0,0-1.6-3.9-2.6-5.6
			c0,0,1.3,3.8-7.6,7.8l-10,6.6l-5.2-0.1c0,0-15.3-8.2-15.4-10C492.5,202.4,490.8,200.6,489.6,198z"/>
		<path class="st2" d="M505.1,217.2c0,0,0.3,7,2.1,7.5l-7,16.7l10.2,27.8l10.1-27.4l-6.4-17.4c0,0,2.5-2.3,1.9-7.1
			c0,0-3.9-3.2-4.8-3.4h-1.5C509.6,213.9,506.4,215.4,505.1,217.2z"/>
		<path class="st3" d="M489.6,198v-10.4c0,0-3.4-5.7-3-10.3c0,0-2.5,1.4-2.8-1.8l-2.4-12.1c0,0-0.9-4,1.8-4.3l-1-7.8
			c0,0-6.3-30.1,25.6-32.9h6.6c0,0,32.4,1.1,23.2,40.5c0,0,1.6,0.1,1.7,2l-0.4,6.1l-1.5,8.2c0,0-1.2,3.7-3.2,2.2c0,0-0.4,7.9-3,10.7
			l-0.5,10c0,0,0.9,4-7.6,7.8l-10,6.6l-5.2-0.1c0,0-12.8-7-15.4-10C492.5,202.4,490,199.2,489.6,198z"/>
		<path d="M487.1,327.4c0,0-1.4,5.5-7.8,7.4l-20.5,7.6l-15.9,6.1c0,0-8.5,2.9-11.4,17.2l-2,10.4l-5.2,32.3c0,0-4.9,18.6,13.4,20.2
			c0,0,71.1,7.2,118.9,2.2l26.4-2.2c0,0,14.6-0.7,13.4-15.6l-6.1-41.1c0,0-1-18.9-14.4-23.7l-25.2-9.8c0,0-14.1-3.2-17.6-11
			l-0.6,4.5l-5,14.1l-17.4,46.9L489,335.5C489,335.5,486.9,329.3,487.1,327.4z"/>
		<path class="st1" d="M489.5,321.8l-2.3,5.6c0,0,0,5.2,1.9,8.1l21.2,57.4l22.4-61c0,0,0.7-1.3,0.6-4.5c0,0-1.6-3.9-2.6-5.6
			c0,0,1.3,3.8-7.6,7.8l-10,6.6l-5.2-0.1c0,0-15.3-8.2-15.4-10C492.3,326.1,490.6,324.3,489.5,321.8z"/>
		<path class="st2" d="M504.9,340.9c0,0,0.3,7,2.1,7.5l-7,16.7l10.2,27.8l10.1-27.4l-6.4-17.4c0,0,2.5-2.3,1.9-7.1
			c0,0-3.9-3.2-4.8-3.4h-1.5C509.5,337.6,506.2,339.1,504.9,340.9z"/>
		<path class="st3" d="M489.5,321.8v-10.4c0,0-3.4-5.7-3-10.3c0,0-2.5,1.4-2.8-1.8l-2.4-12.1c0,0-0.9-4,1.8-4.3l-1-7.8
			c0,0-6.3-30.1,25.6-32.9h6.6c0,0,32.4,1.1,23.2,40.5c0,0,1.6,0.1,1.7,2l-0.4,6.1l-1.5,8.2c0,0-1.2,3.7-3.2,2.2c0,0-0.4,7.9-3,10.7
			l-0.5,10c0,0,0.9,4-7.6,7.8l-10,6.6l-5.2-0.1c0,0-12.8-7-15.4-10C492.3,326.1,489.9,322.9,489.5,321.8z"/>
		<path d="M488.2,452.4c0,0-1.4,5.5-7.8,7.4l-20.5,7.6l-15.9,6.1c0,0-8.5,2.9-11.4,17.2l-2,10.4l-5.2,32.3c0,0-4.9,18.6,13.4,20.2
			c0,0,71.1,7.2,118.9,2.2l26.4-2.2c0,0,14.6-0.7,13.4-15.6l-6.1-41.1c0,0-1-18.9-14.4-23.7l-25.2-9.8c0,0-14.1-3.2-17.6-11
			l-0.6,4.5l-5,14.1l-17.4,46.9l-21.2-57.4C490.1,460.5,487.9,454.3,488.2,452.4z"/>
		<path class="st1" d="M490.5,446.8l-2.3,5.6c0,0,0,5.2,1.9,8.1l21.2,57.4l22.4-61c0,0,0.7-1.3,0.6-4.5c0,0-1.6-3.9-2.6-5.6
			c0,0,1.3,3.8-7.6,7.8l-10,6.6l-5.2-0.1c0,0-15.3-8.2-15.4-10C493.4,451.1,491.7,449.4,490.5,446.8z"/>
		<path class="st2" d="M506,465.9c0,0,0.3,7,2.1,7.5l-7,16.7l10.2,27.8l10.1-27.4l-6.4-17.4c0,0,2.5-2.3,1.9-7.1
			c0,0-3.9-3.2-4.8-3.4h-1.5C510.5,462.6,507.3,464.1,506,465.9z"/>
		<path class="st3" d="M490.5,446.8v-10.4c0,0-3.4-5.7-3-10.3c0,0-2.5,1.4-2.8-1.8l-2.4-12.1c0,0-0.9-4,1.8-4.3l-1-7.8
			c0,0-6.3-30.1,25.6-32.9h6.6c0,0,32.4,1.1,23.2,40.5c0,0,1.6,0.1,1.7,2l-0.4,6.1l-1.5,8.2c0,0-1.2,3.7-3.2,2.2c0,0-0.4,7.9-3,10.7
			l-0.5,10c0,0,0.9,4-7.6,7.8l-10,6.6l-5.2-0.1c0,0-12.8-7-15.4-10C493.4,451.1,491,447.9,490.5,446.8z"/>
		<path d="M488.2,574.4c0,0-1.4,5.5-7.8,7.4l-20.5,7.6l-15.9,6.1c0,0-8.5,2.9-11.4,17.2l-2,10.4l-5.2,32.3c0,0-4.9,18.6,13.4,20.2
			c0,0,71.1,7.2,118.9,2.2l26.4-2.2c0,0,14.6-0.7,13.4-15.6l-6.1-41.1c0,0-1-18.9-14.4-23.7l-25.2-9.8c0,0-14.1-3.2-17.6-11
			l-0.6,4.5l-5,14.1l-17.4,46.9l-21.2-57.4C490.1,582.4,487.9,576.2,488.2,574.4z"/>
		<path class="st1" d="M490.5,568.7l-2.3,5.6c0,0,0,5.2,1.9,8.1l21.2,57.4l22.4-61c0,0,0.7-1.3,0.6-4.5c0,0-1.6-3.9-2.6-5.6
			c0,0,1.3,3.8-7.6,7.8l-10,6.6l-5.2-0.1c0,0-15.3-8.2-15.4-10C493.4,573.1,491.7,571.3,490.5,568.7z"/>
		<path class="st2" d="M506,587.9c0,0,0.3,7,2.1,7.5l-7,16.7l10.2,27.8l10.1-27.4l-6.4-17.4c0,0,2.5-2.3,1.9-7.1
			c0,0-3.9-3.2-4.8-3.4h-1.5C510.5,584.6,507.3,586.1,506,587.9z"/>
		<path class="st3" d="M490.5,568.7v-10.4c0,0-3.4-5.7-3-10.3c0,0-2.5,1.4-2.8-1.8l-2.4-12.1c0,0-0.9-4,1.8-4.3l-1-7.8
			c0,0-6.3-30.1,25.6-32.9h6.6c0,0,32.4,1.1,23.2,40.5c0,0,1.6,0.1,1.7,2l-0.4,6.1l-1.5,8.2c0,0-1.2,3.7-3.2,2.2c0,0-0.4,7.9-3,10.7
			l-0.5,10c0,0,0.9,4-7.6,7.8l-10,6.6l-5.2-0.1c0,0-12.8-7-15.4-10C493.4,573.1,491,569.9,490.5,568.7z"/>
		<path d="M488.2,681.6c0,0-1.4,5.5-7.8,7.4l-20.5,7.6l-15.9,6.1c0,0-8.5,2.9-11.4,17.2l-2,10.4l-5.2,32.3c0,0-4.9,18.6,13.4,20.2
			c0,0,71.1,7.2,118.9,2.2l26.4-2.2c0,0,14.6-0.7,13.4-15.6l-6.1-41.1c0,0-1-18.9-14.4-23.7l-25.2-9.8c0,0-14.1-3.2-17.6-11
			l-0.6,4.5l-5,14.1l-17.4,46.9l-21.2-57.4C490.1,689.7,487.9,683.5,488.2,681.6z"/>
		<path class="st1" d="M490.5,676l-2.3,5.6c0,0,0,5.2,1.9,8.1l21.2,57.4l22.4-61c0,0,0.7-1.3,0.6-4.5c0,0-1.6-3.9-2.6-5.6
			c0,0,1.3,3.8-7.6,7.8l-10,6.6l-5.2-0.1c0,0-15.3-8.2-15.4-10C493.4,680.3,491.7,678.6,490.5,676z"/>
		<path class="st2" d="M506,695.2c0,0,0.3,7,2.1,7.5l-7,16.7l10.2,27.8l10.1-27.4l-6.4-17.4c0,0,2.5-2.3,1.9-7.1
			c0,0-3.9-3.2-4.8-3.4h-1.5C510.5,691.8,507.3,693.4,506,695.2z"/>
		<path class="st3" d="M490.5,676v-10.4c0,0-3.4-5.7-3-10.3c0,0-2.5,1.4-2.8-1.8l-2.4-12.1c0,0-0.9-4,1.8-4.3l-1-7.8
			c0,0-6.3-30.1,25.6-32.9h6.6c0,0,32.4,1.1,23.2,40.5c0,0,1.6,0.1,1.7,2l-0.4,6.1l-1.5,8.2c0,0-1.2,3.7-3.2,2.2c0,0-0.4,7.9-3,10.7
			l-0.5,10c0,0,0.9,4-7.6,7.8l-10,6.6l-5.2-0.1c0,0-12.8-7-15.4-10C493.4,680.3,491,677.2,490.5,676z"/>
		<path class="st4" d="M283.5,429.3c0,0,0.7-8.1-9.2-18.2c0,0-22.4-22.9-2.5-53.6c0,0,25.1-34.1,62.3-7.8c0,0,32.5,29.4,3.6,62.8
			c0,0-7.2,8.7-8.1,16.8c0,0-0.2,4.7-2.7,6.1h-39.9C287.1,435.4,284.7,435.4,283.5,429.3z"/>
		<path class="st5" d="M287.1,435.4c0,0-3.3,4.6,0,7.8c0,0-3.6,5.7,0,7.6c0,0-4.2,6.3,1,8.5c0,0,1.2,6.6,7.8,8.5
			c0,0,10.5,12.7,21.4,0c0,0,7.2-1.3,8.7-9.1c0,0,4.2-2.2,0.7-8.5c0,0,2.7-3.3,0.4-6.7l0.9-3.6l-1.1-4.6H287.1z"/>
		<path d="M283.7,452.6c0,0-1.4,5.5-7.8,7.4l-20.5,7.6l-15.9,6.1c0,0-8.5,2.9-11.4,17.2l-2,10.4l-5.2,32.3c0,0-4.9,18.6,13.4,20.2
			c0,0,71.1,7.2,118.9,2.2l26.4-2.2c0,0,14.6-0.7,13.4-15.6l-6.1-41.1c0,0-1-18.9-14.4-23.7l-25.2-9.8c0,0-14.1-3.2-17.6-11
			l-0.6,4.5l-5,14.1l-17.4,46.9l-21.2-57.4C285.5,460.7,283.4,454.5,283.7,452.6z"/>
		<path class="st1" d="M286,447l-2.3,5.6c0,0,0,5.2,1.9,8.1l21.2,57.4l22.4-61c0,0,0.7-1.3,0.6-4.5c0,0-1.6-3.9-2.6-5.6
			c0,0,1.3,3.8-7.6,7.8l-10,6.6l-5.2-0.1c0,0-15.3-8.2-15.4-10C288.8,451.3,287.1,449.6,286,447z"/>
		<path class="st6" d="M301.4,466.2c0,0,0.3,7,2.1,7.5l-7,16.7l10.2,27.8l10.1-27.4l-6.4-17.4c0,0,2.5-2.3,1.9-7.1
			c0,0-3.9-3.2-4.8-3.4H306C306,462.8,302.7,464.4,301.4,466.2z"/>
		<path d="M283.7,574.6c0,0-1.4,5.5-7.8,7.4l-20.5,7.6l-15.9,6.1c0,0-8.5,2.9-11.4,17.2l-2,10.4l-5.2,32.3c0,0-4.9,18.6,13.4,20.2
			c0,0,71.1,7.2,118.9,2.2l26.4-2.2c0,0,14.6-0.7,13.4-15.6L387,619c0,0-1-18.9-14.4-23.7l-25.2-9.8c0,0-14.1-3.2-17.6-11l-0.6,4.5
			l-5,14.1l-17.4,46.9l-21.2-57.4C285.5,582.7,283.4,576.5,283.7,574.6z"/>
		<path class="st1" d="M286,569l-2.3,5.6c0,0,0,5.2,1.9,8.1l21.2,57.4l22.4-61c0,0,0.7-1.3,0.6-4.5c0,0-1.6-3.9-2.6-5.6
			c0,0,1.3,3.8-7.6,7.8l-10,6.6l-5.2-0.1c0,0-15.3-8.2-15.4-10C288.8,573.3,287.1,571.6,286,569z"/>
		<path class="st2" d="M301.4,588.2c0,0,0.3,7,2.1,7.5l-7,16.7l10.2,27.8l10.1-27.4l-6.4-17.4c0,0,2.5-2.3,1.9-7.1
			c0,0-3.9-3.2-4.8-3.4H306C306,584.8,302.7,586.3,301.4,588.2z"/>
		<path class="st3" d="M286,569v-10.4c0,0-3.4-5.7-3-10.3c0,0-2.5,1.4-2.8-1.8l-2.4-12.1c0,0-0.9-4,1.8-4.3l-1-7.8
			c0,0-6.3-30.1,25.6-32.9h6.6c0,0,32.4,1.1,23.2,40.5c0,0,1.6,0.1,1.7,2l-0.4,6.1l-1.5,8.2c0,0-1.2,3.7-3.2,2.2c0,0-0.4,7.9-3,10.7
			l-0.5,10c0,0,0.9,4-7.6,7.8l-10,6.6l-5.2-0.1c0,0-12.8-7-15.4-10C288.8,573.3,286.4,570.1,286,569z"/>
		<path d="M283.7,681.9c0,0-1.4,5.5-7.8,7.4l-20.5,7.6l-15.9,6.1c0,0-8.5,2.9-11.4,17.2l-2,10.4l-5.2,32.3c0,0-4.9,18.6,13.4,20.2
			c0,0,71.1,7.2,118.9,2.2l26.4-2.2c0,0,14.6-0.7,13.4-15.6l-6.1-41.1c0,0-1-18.9-14.4-23.7l-25.2-9.8c0,0-14.1-3.2-17.6-11
			l-0.6,4.5l-5,14.1l-17.4,46.9L285.5,690C285.5,690,283.4,683.8,283.7,681.9z"/>
		<path class="st1" d="M286,676.3l-2.3,5.6c0,0,0,5.2,1.9,8.1l21.2,57.4l22.4-61c0,0,0.7-1.3,0.6-4.5c0,0-1.6-3.9-2.6-5.6
			c0,0,1.3,3.8-7.6,7.8l-10,6.6l-5.2-0.1c0,0-15.3-8.2-15.4-10C288.8,680.6,287.1,678.9,286,676.3z"/>
		<path class="st2" d="M301.4,695.4c0,0,0.3,7,2.1,7.5l-7,16.7l10.2,27.8l10.1-27.4l-6.4-17.4c0,0,2.5-2.3,1.9-7.1
			c0,0-3.9-3.2-4.8-3.4H306C306,692.1,302.7,693.6,301.4,695.4z"/>
		<path class="st3" d="M286,676.3v-10.4c0,0-3.4-5.7-3-10.3c0,0-2.5,1.4-2.8-1.8l-2.4-12.1c0,0-0.9-4,1.8-4.3l-1-7.8
			c0,0-6.3-30.1,25.6-32.9h6.6c0,0,32.4,1.1,23.2,40.5c0,0,1.6,0.1,1.7,2l-0.4,6.1l-1.5,8.2c0,0-1.2,3.7-3.2,2.2c0,0-0.4,7.9-3,10.7
			l-0.5,10c0,0,0.9,4-7.6,7.8l-10,6.6l-5.2-0.1c0,0-12.8-7-15.4-10C288.8,680.6,286.4,677.4,286,676.3z"/>
		<line class="st7" x1="204.5" y1="318.4" x2="251" y2="358.2"/>
		<line class="st7" x1="305.5" y1="272.2" x2="305.5" y2="333.4"/>
		<line class="st7" x1="401.1" y1="316.4" x2="357.8" y2="359.7"/>
		<line class="st7" x1="185.3" y1="399.2" x2="246.5" y2="399.2"/>
		<line class="st7" x1="362.5" y1="401.1" x2="423.7" y2="401.1"/>
		<line class="st7" x1="208.3" y1="453.8" x2="267.6" y2="438.9"/>
		<line class="st7" x1="359.3" y1="439.6" x2="418" y2="456.9"/>
		<path class="st8" d="M287.1,443.2c0,0,15.2,7,40,0.3"/>
	</g>
</g>
</svg>
